<svg width="901" height="861" viewBox="0 0 901 861" fill="none" xmlns="http://www.w3.org/2000/svg">
<path d="M632.605 4H52.09C25.755 4 4 24.767 4 49.906V810.634C4 835.773 25.755 856.54 52.09 856.54H849.01C875.345 856.54 897.1 835.773 897.1 810.634V256.483C897.1 233.53 887.94 210.577 869.62 194.182L696.725 30.232C679.55 12.744 656.65 4 632.605 4Z" fill="#BBBBBB" stroke="black" stroke-width="7" stroke-miterlimit="10" stroke-linecap="round"/>
<path d="M162.01 856.54H740.235V499.129C740.235 460.874 708.175 429.177 666.955 429.177H234.145C194.07 429.177 160.865 459.781 160.865 499.129V856.54H162.01Z" fill="white" stroke="black" stroke-width="7" stroke-miterlimit="10" stroke-linecap="round"/>
<path d="M594.82 4H162.01V246.646C162.01 266.32 179.185 282.715 199.795 282.715H558.18C578.79 282.715 595.965 266.32 595.965 246.646V4H594.82Z" fill="white" stroke="black" stroke-width="7" stroke-miterlimit="10" stroke-linecap="round"/>
</svg>
