<svg width="172" height="172" viewBox="0 0 172 172" fill="none" xmlns="http://www.w3.org/2000/svg">
	<path d="M117.8 8H16.4C11.8 8 8 11.8 8 16.4V155.6C8 160.2 11.8 164 16.4 164H155.6C160.2 164 164 160.2 164 155.6V54.2C164 50 162.4 45.8 159.2 42.8L129 12.8C126 9.6 122 8 117.8 8Z" stroke="white" stroke-width="15" stroke-miterlimit="10" stroke-linecap="round" />
	<path d="M35.6 164H136.6V98.6C136.6 91.6 131 85.8 123.8 85.8H48.2C41.2 85.8 35.4 91.4 35.4 98.6V164H35.6Z" stroke="white" stroke-width="13" stroke-miterlimit="10" stroke-linecap="round" />
	<path d="M111.2 8H35.6V52.4C35.6 56 38.6 59 42.2 59H104.8C108.4 59 111.4 56 111.4 52.4V8H111.2Z" stroke="white" stroke-width="13" stroke-miterlimit="10" stroke-linecap="round" />
</svg>
