<svg xmlns="http://www.w3.org/2000/svg" viewBox="0 0 254.93155 177.02089">
    <defs>
        <style>
            .a{fill:#ffffff;}.b{fill:none;stroke:#ffffff;stroke-linecap:round;stroke-linejoin:round;stroke-width:14.74462px;}</style>
    </defs>
    <path class="a"
        d="M26.71378,130.51015q3.42041,3.75145,3.41992,11.31054,0,7.62012-4.5,12.48047a23.89474,23.89474,0,0,1-11.28028,6.7793l-2.46.7207a1.16343,1.16343,0,0,1-1.10937-.41992,1.70736,1.70736,0,0,1-.51074-1.20117V154.1205a1.71352,1.71352,0,0,1,.42089-1.11035,2.95879,2.95879,0,0,1,1.07911-.80957l1.92089-.78028a9.67561,9.67561,0,0,0,4.34961-3.21,10.04032,10.04032,0,0,0,1.58985-6.08984q0-3.77929-1.32031-5.28028-1.31983-1.49853-4.91993-1.5H11.83389l-8.04-.05957a1.43842,1.43842,0,0,1-1.5-1.5V119.9203a1.41478,1.41478,0,0,1,.4502-1.08008,1.492,1.492,0,0,1,1.0498-.41992h6.4795a1.43842,1.43842,0,0,1,1.5,1.5v6.83985h3.7207Q23.29288,126.76015,26.71378,130.51015Z" />
    <path class="a"
        d="M34.54385,133.54042a1.20143,1.20143,0,0,1-.33007-.83984,1.76442,1.76442,0,0,1,.12011-.66016L38.954,120.101a3.64861,3.64861,0,0,1,.87012-1.23047,2.05646,2.05646,0,0,1,1.41015-.4502h4.37989a1.05634,1.05634,0,0,1,.87011.41992,1.282,1.282,0,0,1,.26953.96094l-1.85937,12a3.10194,3.10194,0,0,1-.7207,1.5,1.91287,1.91287,0,0,1-1.5.59961H35.3544A1.05467,1.05467,0,0,1,34.54385,133.54042Zm13.56055,0a1.19712,1.19712,0,0,1-.33008-.83984,1.74538,1.74538,0,0,1,.12012-.66016L52.51358,120.101a3.66207,3.66207,0,0,1,.87012-1.23047,2.05986,2.05986,0,0,1,1.41015-.4502h4.37989a1.05377,1.05377,0,0,1,.87011.41992,1.27859,1.27859,0,0,1,.27051.96094l-1.86035,12a3.10939,3.10939,0,0,1-.71973,1.5,1.91564,1.91564,0,0,1-1.5.59961H48.914A1.05265,1.05265,0,0,1,48.1044,133.54042Z" />
    <path class="a"
        d="M66.10342,146.38124a1.41188,1.41188,0,0,1-.45019-1.08008v-17.041a1.41479,1.41479,0,0,1,.45019-1.08008,1.56657,1.56657,0,0,1,1.11036-.41992h7.5a1.43842,1.43842,0,0,1,1.5,1.5v17.041a1.492,1.492,0,0,1-.41993,1.04981,1.41332,1.41332,0,0,1-1.08007.45019h-7.5A1.56657,1.56657,0,0,1,66.10342,146.38124Z" />
    <path class="a"
        d="M86.92276,157.72108q-4.17187-3.89942-4.16992-11.041V128.26015a1.41136,1.41136,0,0,1,.45019-1.08008,1.492,1.492,0,0,1,1.04981-.41992h6.24023a1.56748,1.56748,0,0,1,1.10938.41992,1.41479,1.41479,0,0,1,.45019,1.08008v18.12109a6.19352,6.19352,0,0,0,1.9502,5.00977,8.14811,8.14811,0,0,0,5.42969,1.64941q6.71923,0,6.78027-6.41992a13.49315,13.49315,0,0,0,.03027-1.62012c-.02148-.67969-.03027-1.19922-.03027-1.55957V142.1205a10.81382,10.81382,0,0,0-1.14063-5.25,3.42627,3.42627,0,0,0-3.11914-1.83008,7.12121,7.12121,0,0,0-1.7705.24023,5.7975,5.7975,0,0,0-1.53028.60059,1.88742,1.88742,0,0,1-.54.11914,1.26638,1.26638,0,0,1-.92968-.38965,1.33771,1.33771,0,0,1-.38965-.99023v-4.73926a2.359,2.359,0,0,1,1.13965-2.2207,11.3184,11.3184,0,0,1,5.75976-1.13965q6.60059,0,9.4502,3.45019,2.84911,3.45119,2.96972,10.64942v6.2998q-.66065,14.70117-16.67968,14.7002Q91.0917,161.6205,86.92276,157.72108Z" />
    <path class="a"
        d="M150.0419,160.601a1.41189,1.41189,0,0,1-.45019-1.08008V141.76015q0-6.83936-6.78028-6.83985h-9.11914a1.53507,1.53507,0,0,1-1.5-1.5v-5.16015a1.414,1.414,0,0,1,.44922-1.08008,1.4959,1.4959,0,0,1,1.05078-.41992h9.47949q8.33935,0,12.4502,3.41992,4.10889,3.42041,4.11035,11.2207v18.12012a1.48865,1.48865,0,0,1-.4209,1.0498,1.41119,1.41119,0,0,1-1.0791.4502h-7.08008A1.56236,1.56236,0,0,1,150.0419,160.601Z" />
    <path class="a"
        d="M166.96182,160.601a1.41189,1.41189,0,0,1-.45019-1.08008V128.26015a1.41479,1.41479,0,0,1,.45019-1.08008,1.56585,1.56585,0,0,1,1.10938-.41992h7.5a1.43841,1.43841,0,0,1,1.5,1.5v31.26074a1.492,1.492,0,0,1-.41992,1.0498,1.41187,1.41187,0,0,1-1.08008.4502h-7.5A1.56164,1.56164,0,0,1,166.96182,160.601Z" />
    <path class="a"
        d="M211.75089,127.18007a1.46766,1.46766,0,0,1,.41992,1.08008v5.16015a1.49594,1.49594,0,0,1-.41992,1.05078,1.41109,1.41109,0,0,1-1.08008.44922H207.911a9.18487,9.18487,0,0,0-1.10937,3.06055,21.39314,21.39314,0,0,0-.39063,4.25977v17.46a1.121,1.121,0,0,1-.56933.93066,2.056,2.056,0,0,1-1.1709.38965h-7.01953a1.23986,1.23986,0,0,1-1.32032-1.32031V141.58046q0-4.86036,1.2002-6.66016H183.85147a1.53688,1.53688,0,0,1-1.5-1.5v-5.16015a1.41137,1.41137,0,0,1,.4502-1.08008,1.49191,1.49191,0,0,1,1.0498-.41992h26.81934A1.46455,1.46455,0,0,1,211.75089,127.18007Z" />
    <path class="a"
        d="M247.871,130.4203q3.83935,3.66064,3.83985,10.98047v18.12012a1.49192,1.49192,0,0,1-.41993,1.0498,1.41329,1.41329,0,0,1-1.08007.4502H233.831a1.5387,1.5387,0,0,1-1.5-1.5v-5.16016a1.40994,1.40994,0,0,1,.4502-1.08008,1.492,1.492,0,0,1,1.0498-.41992h7.74024V141.88124a7.21618,7.21618,0,0,0-1.5-4.86035,4.90877,4.90877,0,0,0-3.90039-1.74024h-4.67969l-5.10059,24.17969a1.82134,1.82134,0,0,1-.47949,1.11035,1.4133,1.4133,0,0,1-1.08008.4502h-6.90039a1.50669,1.50669,0,0,1-1.10937-.4502,1.17731,1.17731,0,0,1-.33008-1.11035l5.87988-24.12012h-3.96a1.40822,1.40822,0,0,1-1.08008-.44921,1.56565,1.56565,0,0,1-.41992-1.11036v-5.5205a1.414,1.414,0,0,1,.44922-1.08008,1.4959,1.4959,0,0,1,1.05078-.41992h19.25977Q244.02968,126.76015,247.871,130.4203Z" />
    <path class="b"
        d="M141.3734,59.20878l14.439,14.24177a28.21915,28.21915,0,0,0,40.61776-.93024c10.37581-11.24566,9.49188-28.86986-1.378-39.6387l0,0a17.90624,17.90624,0,0,0-25.31644.11163l-7.21751,7.27767" />
    <path class="b"
        d="M100.70955,39.27663l-3.58606-3.596A26.86266,26.86266,0,1,0,97.30085,73.669L162.9814,7.37231" />
    <line class="b" x1="128.39897" y1="74.44361" x2="121.18146" y2="81.72127" />
</svg>